<svg id="Capa_1" data-name="Capa 1" xmlns="http://www.w3.org/2000/svg" viewBox="0 0 22 60"><defs><style>.cls-1{fill:#17a600;}</style></defs><title>icon60x60</title><path className="cls-1" d="M39.47,10H38V1.5A1.5,1.5,0,0,0,36.5,0h-13A1.5,1.5,0,0,0,22,1.5V10H20.52A1.53,1.53,0,0,0,19,11.52v2.95A1.53,1.53,0,0,0,20.52,16H22V52a8,8,0,0,0,16,0V16h1.47A1.53,1.53,0,0,0,41,14.48V11.53A1.53,1.53,0,0,0,39.47,10ZM34,8.5A1.5,1.5,0,0,1,35.5,7a1.44,1.44,0,0,1,.5.09V9.91a1.44,1.44,0,0,1-.5.09A1.5,1.5,0,0,1,34,8.5ZM31.83,2a3,3,0,0,1-5.66,0ZM24.1,2a5,5,0,0,0,9.8,0H36V5a3.46,3.46,0,0,0-.5,0A3.5,3.5,0,0,0,32,8.5a3.46,3.46,0,0,0,.35,1.5h-1.4A4.48,4.48,0,0,0,24,6.76V2ZM29,10H24A2.5,2.5,0,0,1,29,10Zm7,42a6,6,0,0,1-12,0V31H36Zm0-23H24V16H36Zm3-15H21V12H39Z" transform="translate(-19)"/></svg>