<svg id="Ebene_1" data-name="Ebene 1" xmlns="http://www.w3.org/2000/svg" viewBox="0 0 130.5 98.91"><defs><style>.cls-1{fill:#8cbd22;}.cls-1,.cls-2{fill-rule:evenodd;}.cls-2,.cls-3{fill:#005143;}.cls-3{font-size:14.72px;font-family:Montserrat-ExtraLight, Montserrat;}</style></defs><title>logo200x100</title><path class="cls-1" d="M130,23.74l-3.77-.88-2.52-.55-4.5-.47-3.41.16-2.27.2-4.06,1.08-1.59.65-.49.19-.39.33-.08.37.16.41.37.27.44.06.56-.08,3.35-.43,3.87-.17,4.22-.45h5.56l3.4.22,2.86.5.78.26,1.63.53.94.95,1.22,2.4,1,2.53,1.35,6.56-3-1.24-2.4-.91-3.84-1.11-4.74-.95L120,33.09l-3.36-.43-2.87-.12-2,.19-1,.26-.7.37-.23.25-.16.39,0,.38.14.21.36.28,1.18.19,3.08.16,2.76.11,3.23.24,3.59.36,3.4.44,2.79.64,3.45,1.1,1.31.54,1.18.63.94.76.8.74.66.83.45.86,1,3.38.55,5.82-2.09-1.13L135,48.17l-3.47-1.65-3.18-1.76-2.53-1-2.27-.79-2-.49-2.62-.3-.65.18-.54.29-.29.51-.1.57.19.45.33.29.43.31.57.19,1.54.22,2.86.62,2.71.58,2.73.46,2.6.84,2.58,1.13,2,1.07,2,1.49,1.69,1.23.72,1.16-.14,2-.89,4.42-1-.88-1.46-1-2.54-1.38L132,55.49l-2-1.2-1.84-.91-1.66-.78-1.75-.51-2.16-.18a6.51,6.51,0,0,0-2.27.47c-1.14.59.52,1.91,1,2.12l1.32.43.81.18,1.89.37,2.26.49,2.58.85,2.61,1.26,1.81,1.17,1,.75,1.28,1.08a12.53,12.53,0,0,1,1.61,2.34,4.35,4.35,0,0,1,.29,2.58l-.5,1.8-.77,1.5-.59-1.41-1-1.38-1.5-1.7-.89-.65-1-.63L131.3,63l-1-.17a1.45,1.45,0,0,0-1.35.33c-.81.57.23,1.17.23,1.17l1,.91,2.08,1.51L135,68.84l.66.59.38.63.1.67a6.9,6.9,0,0,1-.5,2.2,2.93,2.93,0,0,1-1,1.18l-1.22.77-1.46.83-1.83,1.1-1.15.62-1.31.64-1,0-1.08-.36-.53-.37-.49-.61-1-2.39-1-2.88-.83-2.38-.7-2.85a26.94,26.94,0,0,0-1.52-4c-.52-.75-.64.54-.64.54l0,1.16.22,1.77.26,2L120,70,121.27,73l.89,1.85,1,1.68,1.72,2.72-4.16,1-3.12.39-.7-.25-.43-.22-.44-.4-.38-.54-.46-.88-.46-1-.58-1.57-.6-2.76-.3-2.94-.51-3.91-.13-3-.09-2.25-.27-3.43a6.12,6.12,0,0,0-.75-2.26c-.57-.81-1.29.68-1.29.68l-.52,1.23-.53,1.76-.28,2.3-.09,2.69,0,1,.06,3.67.27,2.77.24,2.55.45,3.06.87,3.37-2.15.11-1.4-.16-1.61-.23-1.11-.4-.69-.32-.66-.59-.79-1.43-1.12-2.92-.6-2.45-.45-2.37-.32-2.84,0-3.65.22-2.2.66-3.43.88-3.1.71-2.07.71-2,.17-.64,0-.7-.19-.58-.59-.48-.52-.13-.57,0-.41.23-.36.28-.45,1-.6,1.84-.62,2.29-.77,3.14-.71,3.09-.33,3.1L96.87,65l-.11,3.69L96.67,72l.07,3.45.16,3-4.39-1.06-2.69-.84-1.34-.6-.81-.63-.54-.71-.26-.81-.45-3,0-3.53.28-3.13.54-2.45,1.07-3.9,1.23-3.55,1.8-5L92.18,47l.24-1.38,0-.37-.28-.45-.46-.27a2.28,2.28,0,0,0-1,.12,13.13,13.13,0,0,0-1.07,1.12l-1.62,2.71-1.24,2.73-1.08,2.43-.8,4.55-.33,3.11-.09,4.51.06,2.46.41,3.83,0,1.9-1.84-.69-3.45-2.1L76.45,68.8l-1.79-1.62L73.29,66,72,64.65l-.28-.89.35-2.59.77-2.48,1.44-3.2,1.62-3.3,2.19-3.76,1.43-2.55L81.15,43s1.31-1.84,2.15-2.89-.52-.75-.52-.75l-1.25.6-1.45,1.42-2,2.39L75.93,46.7,73.74,49.8l-1.08,2.12-.95,2.27-.81,3.07-.51,2.91-.66,2.48L66.65,59.4l-3.1-4-1.87-2.68-.86-1.49-.58-1.36-.13-1.9.57-1.84.81-1.36.95-1.36L63.94,42,67,39.84l3.07-2.1c.37-.26,2.4-1.73,3.21-2.3l3.23-2.27,2.13-1.55.34-.54.08-.49L79,30l-.41-.56-1.07-.63-.89-.23-.94,0L73.54,29l-2.23.91-1.9.87-2,1L66,32.7l-1.36,1L62.05,36l-2.51,2.64-1.4,1.58-.77,1.28-.61-4.44-.07-3.8.55-3.12.53-3c.68-1.33.64-1.48,1.18-2.36a9.85,9.85,0,0,1,1.48-1.92,6.67,6.67,0,0,1,4.62-1.48l1.27.09,2.94.09h3.34l2.91-.09,1.8-.34.47-.48-.2-.73-.66-.61-1-.44-2.22-.39-2.24-.18-3.71.22-5.67,1.23.16-.9L63,17.55l1.16-1.34,2.44-1.15,3.17-.64,2.57-.35,2.06-.15,1.9-.06,1.8-.08,1.87.11,1.74.23,2.19.88,1.59,1.21,2.46,3,1.5,2,.28.35.11.13.13.09.13,0h.1l.12-.05.11-.09.1-.17v-.19l-1.27-1.64L88,17.86l-1.27-2.4-.54-1.84-.08-1.7.07-2.55a6.39,6.39,0,0,1,.75-3A7.84,7.84,0,0,1,89.5,3.45L92.1,2l1.85-.8L95.38.8,97.16.55l2.43.26,1.75.47,3.34,1.46,2.16,1.36-3.26.65-1.34.34-1.79.61L98.29,7.09l-1,.94-.85,1.7-.25,1.19.09.91.34.52.63.15L99,11.83l1-.61.77-.76,1.84-1.69,1.82-2,1-.93.93-.65,1.1-.35,1,0,2.5.35,3.09.75,2.73,1.52,3.14,2,2.93,2.86L121.47,12l-2.36-.2-2.48.16-3.05.93-2.89.91-3.79,1.69-2.79,1.58-1.31,1-.29.82.66.46,1.09-.3,2-.6,3.12-1,2.89-.91,3.18-1,3.88-1,3.89-.13,1.91.34,2.29,1.55L130,19.08l2.68,3.69,1.59,2.75-2.13-.92L130,23.74ZM85.33,25.3c-1.49.43-3.06,1.61-2.64,2.21a2.63,2.63,0,0,0,.45.5c.29.24,1.08.12,1.31,0a1.93,1.93,0,0,0,.56-.28l1-.7c.41-.29,1-1.61.27-1.73l-.94,0ZM90,32.88l-.72,1-.8.7-1.07.61a2.79,2.79,0,0,1-.89.32,1.13,1.13,0,0,1-.69-1.12,5,5,0,0,1,.58-1.51,6.8,6.8,0,0,1,1.48-2,8.44,8.44,0,0,1,1-.76,4.76,4.76,0,0,1,1.24-.53s.59.14.66.59a3,3,0,0,1-.05,1.12,3.79,3.79,0,0,1-.52,1.07l-.2.51Zm4.25,2.71-.47,1.07-.43.9-.14.79L93.1,39l0,.77s.13.49.37.53a3.37,3.37,0,0,0,.93-.19l.47-.33.56-.39.58-.83.48-.7.6-1.07.49-.9.12-.66a3.29,3.29,0,0,0-.17-.74,1.34,1.34,0,0,0-.26-.34,4.12,4.12,0,0,0-.54-.39l-.48-.09a3.57,3.57,0,0,0-.68.31,8.17,8.17,0,0,0-.72.67l-.62.94Zm9,8.38-.46.69-.6.54-.59.29-.55-.05-.3-.33-.13-.32-.15-.64.15-.87.48-.87.66-.8.45-.28.38-.1.77.14c-.28-.26.46.35.42.56l-.16.9a3.52,3.52,0,0,1-.2.65l-.19.5ZM99.24,20.29l-.63.16-.77.22-.63.16-.65.46-.1.58.28.4.5.09,1.11-.24.9-.17.69-.2.43-.31.09-.5,0-.41-.42-.31-.82.06Zm4,5-1.44.29-.57.3-.41.29-.33.4,0,.6.44.32.48.09.61.11.94-.12.71-.27.6-.5.21-.67-.22-.31-.39-.42-.63-.11Zm2.7,7.15-.72-.05-.61.31-.19.4,0,.53.34.47.62.37.45.08.56.08.59-.13.44-.43.23-.51-.17-.37-.29-.31-.71-.34-.57-.1Z" transform="translate(-34.75 -0.55)"/><path class="cls-2" d="M41.92,42.53,37.34,31a4.42,4.42,0,0,0-.69-1.32,1.09,1.09,0,0,0-.76-.32v-.11h3v.11c-.27,0-.4.09-.4.32a1.45,1.45,0,0,0,.18.59L42.5,40l3.84-9.77s0,0,0-.09a2.55,2.55,0,0,0,.16-.57q0-.27-.47-.27v-.11H48v.11a1,1,0,0,0-.62.18,3.77,3.77,0,0,0-.42.64l-.07.14-4.8,12.24Zm10.2-13.19a1.59,1.59,0,0,0-.62.11c-.25.07-.33.27-.33.59a4,4,0,0,0,0,.66V40.77c0,.41,0,.71,0,.89a.58.58,0,0,0,.27.41,1.31,1.31,0,0,0,.69.11v.14H48.69v-.14a1.27,1.27,0,0,0,.67-.11.63.63,0,0,0,.25-.37,4.57,4.57,0,0,0,0-.91v-10c0-.39,0-.66,0-.89a.68.68,0,0,0-.27-.46,1.06,1.06,0,0,0-.67-.14v-.11h3.44v.11Zm10.8,1h-.13a1.2,1.2,0,0,0,0-.36c0-.16-.07-.25-.16-.27a1.16,1.16,0,0,0-.45-.07H58.86V40.86a5,5,0,0,0,0,.64,1.09,1.09,0,0,0,.13.43.61.61,0,0,0,.27.2,1.94,1.94,0,0,0,.58,0v.14H56.4v-.14a1.4,1.4,0,0,0,.62-.11.73.73,0,0,0,.29-.3,2.68,2.68,0,0,0,.07-.73V29.63H54.17a2.14,2.14,0,0,0-.65.07c-.09,0-.13.11-.13.27a.9.9,0,0,0,.07.36h-.13l-.6-1.57h.13a.65.65,0,0,0,.33.39,1.7,1.7,0,0,0,.62.07h8.53a2.87,2.87,0,0,0,.74-.07c.13,0,.22-.18.31-.39h.13l-.6,1.57Zm2.21,5.95h3.75L70.76,41s0,0,0,.09a.38.38,0,0,1,0,.11,1.88,1.88,0,0,1,.18.71.33.33,0,0,1-.07.23c-.07.07-.16.09-.34.09v.14h3v-.14a.92.92,0,0,1-.8-.34,3.24,3.24,0,0,1-.49-.89l-.07-.2a.25.25,0,0,1-.07-.14L67.61,29h-.22L62.72,41a3,3,0,0,1-.45.91,1,1,0,0,1-.76.27v.14h1.92v-.14c-.29,0-.45-.09-.45-.27a1.13,1.13,0,0,1,.11-.43.87.87,0,0,0,.09-.23l1.94-5Zm3.59-.36H65.27L67,31.45l1.72,4.47Zm14.21,6.61L78.36,31a4.41,4.41,0,0,0-.69-1.32,1.09,1.09,0,0,0-.76-.32v-.11h3v.11c-.27,0-.4.09-.4.32a1.45,1.45,0,0,0,.18.59L83.52,40l3.84-9.77s0,0,0-.09a2.55,2.55,0,0,0,.16-.57c0-.18-.16-.27-.47-.27v-.11H89v.11a1,1,0,0,0-.62.18,3.77,3.77,0,0,0-.42.64l-.07.14-4.8,12.24Zm6.86-13.31h8.08V31h-.13a5,5,0,0,0-.31-1,.52.52,0,0,0-.29-.32,3.79,3.79,0,0,0-.71-.07H92.18v5.88h3.93a1.72,1.72,0,0,0,.67-.07A.38.38,0,0,0,97,35.1h.13v1.25H97a.38.38,0,0,0-.25-.36,1.13,1.13,0,0,0-.56-.09h-4V40a3.79,3.79,0,0,0,.18,1.32.85.85,0,0,0,.51.52,8.4,8.4,0,0,0,1.1.09h2.28a8.58,8.58,0,0,0,1.3-.07.79.79,0,0,0,.6-.34,2.24,2.24,0,0,0,.31-1h.13v1.8h-8.8v-.14a1.06,1.06,0,0,0,.69-.18c.16-.09.2-.34.22-.73V30.68a2.85,2.85,0,0,0-.13-1.07c-.11-.16-.36-.25-.78-.25v-.14Zm9.69,0v.11a4.58,4.58,0,0,1,.56.09.48.48,0,0,1,.27.32,2.15,2.15,0,0,1,.11.78V41a2.12,2.12,0,0,1-.16,1c-.11.16-.36.25-.78.25v.14h3.33v-.14a1.08,1.08,0,0,1-.54-.09.47.47,0,0,1-.29-.3,2,2,0,0,1-.09-.73v-5h1c.36,0,.58,0,.65,0l.49,0,1.27,2s0,0,0,0,0,0,0,0c.78,1.21,1.52,2.21,2.19,3.05a3.74,3.74,0,0,0,.83.78,4.11,4.11,0,0,0,.87.41,4.84,4.84,0,0,0,.8.09c.36,0,.67,0,1-.09s.58-.14.76-.2a4.4,4.4,0,0,0,1-.59l0-.18c-.09.07-.2.11-.31.18l-.31.16a2.47,2.47,0,0,1-.87.18,2.22,2.22,0,0,1-1.23-.34,3.84,3.84,0,0,1-.89-.73c-.49-.57-1-1.3-1.63-2.14s-1-1.41-1.07-1.62l-.07-.11-.92-1.44a5.08,5.08,0,0,0,1.14-.84,4,4,0,0,0,.8-1.18,3.32,3.32,0,0,0,.31-1.39,2.86,2.86,0,0,0-.49-1.71,2.53,2.53,0,0,0-1.36-1,3.62,3.62,0,0,0-1-.2c-.36,0-.94,0-1.74,0Zm2.41,6.49V29.56h1a4.13,4.13,0,0,1,1.45.2,2.44,2.44,0,0,1,1,.62,2.63,2.63,0,0,1,.56.78,4,4,0,0,1,.31.91,3.19,3.19,0,0,1,.11.87,3.11,3.11,0,0,1-.38,1.5,2.72,2.72,0,0,1-.92.91,5.17,5.17,0,0,1-.87.27,5.41,5.41,0,0,1-1,.09Zm11.71-6.49v.11c.45,0,.71.11.8.3a3.38,3.38,0,0,1,.13,1.23v9.55c0,.5,0,.87-.07,1.14a1.15,1.15,0,0,1-.25.5.59.59,0,0,1-.45.14h-.18v.14h6.05a19.89,19.89,0,0,0,2.61-.16,5.48,5.48,0,0,0,1.72-.62,6.78,6.78,0,0,0,1.29-1,7.9,7.9,0,0,0,1.09-1.44,6.15,6.15,0,0,0,.78-1.76,6.46,6.46,0,0,0,.29-2,6.19,6.19,0,0,0-.33-2.05,5.23,5.23,0,0,0-.87-1.69,5.38,5.38,0,0,0-1.29-1.21,7,7,0,0,0-2-.89,14.54,14.54,0,0,0-3.46-.32Zm2.41.27h2a11.11,11.11,0,0,1,3.71.55,7,7,0,0,1,2,1.12,5.48,5.48,0,0,1,1.34,1.48,6.6,6.6,0,0,1,.74,1.64A6.31,6.31,0,0,1,126,36a6.58,6.58,0,0,1-.49,2.48,5.34,5.34,0,0,1-1.3,2,4.84,4.84,0,0,1-1.23.87,6.18,6.18,0,0,1-1.54.5,12.43,12.43,0,0,1-2,.16,8.76,8.76,0,0,1-2.23-.25,1.6,1.6,0,0,1-1-.75,2.82,2.82,0,0,1-.27-1.32V29.5Zm12.15-.27h8.08V31h-.13a5,5,0,0,0-.31-1,.51.51,0,0,0-.29-.32,3.8,3.8,0,0,0-.72-.07h-4.24v5.88h3.93a1.72,1.72,0,0,0,.67-.07.39.39,0,0,0,.24-.37h.14v1.25h-.14a.38.38,0,0,0-.24-.36,1.13,1.13,0,0,0-.56-.09h-4V40a3.79,3.79,0,0,0,.18,1.32.85.85,0,0,0,.51.52,8.43,8.43,0,0,0,1.1.09h2.28a8.56,8.56,0,0,0,1.29-.07.78.78,0,0,0,.6-.34,2.21,2.21,0,0,0,.31-1H137v1.8h-8.8v-.14a1.06,1.06,0,0,0,.69-.18c.16-.09.2-.34.22-.73V30.68a2.85,2.85,0,0,0-.13-1.07c-.11-.16-.36-.25-.78-.25v-.14ZM143,36.28h3.75L148.58,41s0,0,0,.09a.38.38,0,0,1,0,.11,1.9,1.9,0,0,1,.18.71.33.33,0,0,1-.07.23c-.07.07-.16.09-.34.09v.14h3v-.14a.92.92,0,0,1-.8-.34,3.22,3.22,0,0,1-.49-.89l-.07-.2a.25.25,0,0,1-.07-.14L145.43,29h-.22l-4.67,12a3.06,3.06,0,0,1-.45.91,1,1,0,0,1-.76.27v.14h1.92v-.14c-.29,0-.45-.09-.45-.27a1.13,1.13,0,0,1,.11-.43.87.87,0,0,0,.09-.23l1.94-5Zm3.6-.36h-3.46l1.74-4.47,1.72,4.47Zm17.19,6.4h-5.18c-.45,0-.87,0-1.29,0a7.76,7.76,0,0,1-1.36-.3,7.53,7.53,0,0,1-1.52-.71A7.27,7.27,0,0,1,152,38.79a6.18,6.18,0,0,1-.92-3.14,6.4,6.4,0,0,1,.49-2.3A7.29,7.29,0,0,1,153,31.18a7.41,7.41,0,0,1,2.3-1.57,7.79,7.79,0,0,1,3-.59,10.54,10.54,0,0,1,4,.87l.54,1.5h-.11a5.09,5.09,0,0,0-1.85-1.46,6.15,6.15,0,0,0-2.59-.57,5.12,5.12,0,0,0-2.37.55,5.19,5.19,0,0,0-1.81,1.48A7.11,7.11,0,0,0,153,33.53a8.44,8.44,0,0,0-.38,2.48,6.14,6.14,0,0,0,.8,3.33,5.12,5.12,0,0,0,3.73,2.46,16.12,16.12,0,0,0,1.72.18l.69,0a8.58,8.58,0,0,0,1.12-.09.64.64,0,0,0,.49-.3,1.46,1.46,0,0,0,.14-.75v-2a1,1,0,0,0-.22-.78,1.08,1.08,0,0,0-.67-.16v-.14h3.3v.14c-.38,0-.62.07-.76.25a1.75,1.75,0,0,0-.16.82V41a1.9,1.9,0,0,0,.16.91.62.62,0,0,0,.58.25h.18v.14Zm1.51,5.75H34.75v.47h130.5v-.47Zm0-2.37H34.81v1.42H165.25V45.7Z" transform="translate(-34.75 -0.55)"/><text class="cls-3" transform="translate(0.84 93.83)">mehr als nur grün</text></svg>